<svg xmlns="http://www.w3.org/2000/svg" version="1.1" height="200px" width="400px"> <g>
  <path x="0" y="0" d="M115.94469,127.57881c11.5879,35.33941 44.84113,60.8613 84.05531,60.8613c39.21418,0 72.46741,-25.52189 84.05531,-60.8613L285.69582,127.57881c-11.64561,36.21472 -45.61029,62.42119 -85.69582,62.42119c-40.08553,0 -74.05021,-26.20647 -85.69582,-62.42119z M284.05531,72.42119c-11.5879,-35.33941 -44.84113,-60.8613 -84.05531,-60.8613c-39.21418,0 -72.46741,25.52189 -84.05531,60.8613L114.30418,72.42119c11.64561,-36.21472 45.61029,-62.42119 85.69582,-62.42119c40.08553,0 74.05021,26.20647 85.69582,62.42119z" fill="#082d20"></path>
  <g>
    <g fill="#082d20">
      <path d="M72.9334,120.4437c-0.36703,0 -0.65454,-0.01223 -0.86253,-0.0367c-0.20798,-0.02447 -0.36092,-0.07952 -0.45879,-0.16516c-0.09788,-0.08564 -0.15293,-0.22022 -0.16516,-0.40374c-0.01223,-0.18352 -0.01835,-0.43432 -0.01835,-0.75242L71.42857,81.94201c0,-0.63619 0.11011,-1.19286 0.33033,-1.67c0.22022,-0.47714 0.68513,-0.71571 1.39472,-0.71571c0.58725,0 0.96652,0.25081 1.1378,0.75242c0.17128,0.50161 0.25692,1.04604 0.25692,1.63329L74.54835,118.02129L106.07642,118.02129c0.48938,0 0.86253,0.12846 1.11945,0.38538c0.25692,0.25692 0.38538,0.5322 0.38538,0.82582c0,0.31809 -0.12846,0.59949 -0.38538,0.84417c-0.25692,0.24469 -0.63007,0.36703 -1.11945,0.36703L72.9334,120.4437z"></path>
      <path x="0" y="0" d="M130.41067,81.42816c0.3915,-0.7096 0.69736,-1.19897 0.91758,-1.46813c0.22022,-0.26916 0.55055,-0.40374 0.99099,-0.40374c0.34256,0 0.64231,0.12846 0.89923,0.38538c0.25692,0.25692 0.59337,0.75242 1.00934,1.48648L154.48799,117.98458c0.26916,0.48938 0.40374,0.96652 0.40374,1.43143c0,0.44044 -0.12234,0.783 -0.36703,1.02769c-0.24469,0.24469 -0.53831,0.36703 -0.88088,0.36703c-0.34256,0 -0.67901,-0.11623 -1.00934,-0.34868c-0.33033,-0.23245 -0.66678,-0.65454 -1.00934,-1.26626L145.38559,107.8912L119.25289,107.8912L112.93993,119.3426c-0.26916,0.51385 -0.58113,0.88699 -0.93593,1.11945c-0.3548,0.23245 -0.70348,0.34868 -1.04604,0.34868c-0.41597,0 -0.72183,-0.14681 -0.91758,-0.44044c-0.19575,-0.29363 -0.29363,-0.68513 -0.29363,-1.1745c0,-0.19575 0.04282,-0.3915 0.12846,-0.58725c0.08564,-0.19575 0.18963,-0.41597 0.31198,-0.66066z M144.32119,105.7257L132.31924,83.81387L120.31728,105.7257L144.32119,105.7257z"></path>
      <path d="M209.46943,109.029c0,1.566 -0.28139,2.95461 -0.84417,4.16582c-0.56278,1.21121 -1.34579,2.26337 -2.34901,3.15648c-1.00322,0.89311 -2.19608,1.65165 -3.57857,2.2756c-1.38249,0.62395 -2.8812,1.12557 -4.49615,1.50483c-1.61494,0.37927 -3.33388,0.64842 -5.1568,0.80747c-1.82293,0.15905 -3.66421,0.23857 -5.52384,0.23857c-2.61816,0 -5.22409,-0.13458 -7.81779,-0.40374c-2.5937,-0.26916 -5.01611,-0.6056 -7.26724,-1.00934c-2.25113,-0.40374 -4.23922,-0.83806 -5.96428,-1.30296c-1.72505,-0.46491 -3.02802,-0.90535 -3.90889,-1.32132c-0.34256,-0.17128 -0.59337,-0.38538 -0.75242,-0.64231c-0.15905,-0.25692 -0.23857,-0.51996 -0.23857,-0.78912c0,-0.29363 0.07952,-0.54443 0.23857,-0.75242c0.15905,-0.20798 0.39762,-0.31198 0.71571,-0.31198c0.14681,0 0.31809,0.0367 0.51385,0.11011c0.95428,0.3915 2.32454,0.81971 4.11076,1.28461c1.78622,0.46491 3.81102,0.89923 6.07439,1.30296c2.26337,0.40374 4.67355,0.74018 7.23054,1.00934c2.55699,0.26916 5.09563,0.40374 7.61592,0.40374c2.44688,0 4.77142,-0.15905 6.97361,-0.47714c2.20219,-0.31809 4.14135,-0.85641 5.81746,-1.61494c1.67611,-0.75853 3.00967,-1.76176 4.00065,-3.00967c0.99099,-1.24791 1.48648,-2.78945 1.48648,-4.62461c0,-1.54154 -0.42209,-2.8078 -1.26626,-3.79878c-0.84417,-0.99099 -1.98809,-1.78622 -3.43175,-2.38571c-1.44366,-0.59949 -3.13201,-1.05216 -5.06505,-1.35802c-1.93304,-0.30586 -3.9823,-0.53831 -6.14779,-0.69736c-2.16549,-0.15905 -4.39827,-0.28139 -6.69834,-0.36703c-2.30007,-0.08564 -4.53285,-0.22634 -6.69834,-0.42209c-2.16549,-0.19575 -4.21475,-0.47714 -6.14779,-0.84417c-1.93304,-0.36703 -3.62139,-0.90535 -5.06505,-1.61494c-1.44366,-0.7096 -2.58758,-1.62718 -3.43175,-2.75274c-0.84417,-1.12557 -1.26626,-2.54476 -1.26626,-4.25758c0,-1.566 0.29363,-2.94849 0.88088,-4.14747c0.58725,-1.19897 1.39472,-2.23278 2.42241,-3.10142c1.02769,-0.86864 2.24501,-1.59047 3.65197,-2.16549c1.40696,-0.57502 2.93626,-1.03381 4.5879,-1.37637c1.65165,-0.34256 3.38893,-0.58725 5.21186,-0.73406c1.82293,-0.14681 3.65197,-0.22022 5.48713,-0.22022c2.2756,0 4.5145,0.10399 6.71669,0.31198c2.20219,0.20798 4.26981,0.48938 6.20285,0.84417c1.93304,0.3548 3.67032,0.7463 5.21186,1.1745c1.54154,0.4282 2.77721,0.86253 3.70703,1.30296c0.19575,0.09788 0.34256,0.23857 0.44044,0.42209c0.09788,0.18352 0.14681,0.37315 0.14681,0.5689c0,0.34256 -0.11623,0.66066 -0.34868,0.95428c-0.23245,0.29363 -0.55667,0.44044 -0.97264,0.44044c-0.24469,0 -0.45267,-0.04894 -0.62395,-0.14681c-1.29685,-0.53831 -2.73439,-1.02157 -4.31263,-1.44978c-1.57824,-0.4282 -3.24824,-0.78912 -5.00999,-1.08275c-1.76176,-0.29363 -3.57857,-0.51996 -5.45043,-0.67901c-1.87186,-0.15905 -3.72538,-0.23857 -5.56054,-0.23857c-2.54476,0 -4.97941,0.14681 -7.30394,0.44044c-2.32454,0.29363 -4.3738,0.78912 -6.14779,1.48648c-1.77399,0.69736 -3.18706,1.62718 -4.23922,2.78945c-1.05216,1.16227 -1.57824,2.62428 -1.57824,4.38604c0,1.34579 0.42209,2.44077 1.26626,3.28494c0.84417,0.84417 1.98809,1.52318 3.43175,2.03703c1.44366,0.51385 3.13201,0.89923 5.06505,1.15615c1.93304,0.25692 3.9823,0.45879 6.14779,0.6056c2.16549,0.14681 4.39827,0.27527 6.69834,0.38538c2.30007,0.11011 4.53285,0.29363 6.69834,0.55055c2.16549,0.25692 4.21475,0.61172 6.14779,1.06439c1.93304,0.45267 3.62139,1.08275 5.06505,1.89022c1.44366,0.80747 2.58758,1.84128 3.43175,3.10142c0.84417,1.26014 1.26626,2.8078 1.26626,4.64296z"></path>
      <path d="M265.99241,109.029c0,1.566 -0.28139,2.95461 -0.84417,4.16582c-0.56278,1.21121 -1.34579,2.26337 -2.34901,3.15648c-1.00322,0.89311 -2.19608,1.65165 -3.57857,2.2756c-1.38249,0.62395 -2.8812,1.12557 -4.49615,1.50483c-1.61494,0.37927 -3.33388,0.64842 -5.1568,0.80747c-1.82293,0.15905 -3.66421,0.23857 -5.52384,0.23857c-2.61816,0 -5.22409,-0.13458 -7.81779,-0.40374c-2.5937,-0.26916 -5.01611,-0.6056 -7.26724,-1.00934c-2.25113,-0.40374 -4.23922,-0.83806 -5.96428,-1.30296c-1.72505,-0.46491 -3.02802,-0.90535 -3.90889,-1.32132c-0.34256,-0.17128 -0.59337,-0.38538 -0.75242,-0.64231c-0.15905,-0.25692 -0.23857,-0.51996 -0.23857,-0.78912c0,-0.29363 0.07952,-0.54443 0.23857,-0.75242c0.15905,-0.20798 0.39762,-0.31198 0.71571,-0.31198c0.14681,0 0.31809,0.0367 0.51385,0.11011c0.95428,0.3915 2.32454,0.81971 4.11076,1.28461c1.78622,0.46491 3.81102,0.89923 6.07439,1.30296c2.26337,0.40374 4.67355,0.74018 7.23054,1.00934c2.55699,0.26916 5.09563,0.40374 7.61592,0.40374c2.44688,0 4.77142,-0.15905 6.97361,-0.47714c2.20219,-0.31809 4.14135,-0.85641 5.81746,-1.61494c1.67611,-0.75853 3.00967,-1.76176 4.00065,-3.00967c0.99099,-1.24791 1.48648,-2.78945 1.48648,-4.62461c0,-1.54154 -0.42209,-2.8078 -1.26626,-3.79878c-0.84417,-0.99099 -1.98809,-1.78622 -3.43175,-2.38571c-1.44366,-0.59949 -3.13201,-1.05216 -5.06505,-1.35802c-1.93304,-0.30586 -3.9823,-0.53831 -6.14779,-0.69736c-2.16549,-0.15905 -4.39827,-0.28139 -6.69834,-0.36703c-2.30007,-0.08564 -4.53285,-0.22634 -6.69834,-0.42209c-2.16549,-0.19575 -4.21475,-0.47714 -6.14779,-0.84417c-1.93304,-0.36703 -3.62139,-0.90535 -5.06505,-1.61494c-1.44366,-0.7096 -2.58758,-1.62718 -3.43175,-2.75274c-0.84417,-1.12557 -1.26626,-2.54476 -1.26626,-4.25758c0,-1.566 0.29363,-2.94849 0.88088,-4.14747c0.58725,-1.19897 1.39472,-2.23278 2.42241,-3.10142c1.02769,-0.86864 2.24501,-1.59047 3.65197,-2.16549c1.40696,-0.57502 2.93626,-1.03381 4.5879,-1.37637c1.65165,-0.34256 3.38893,-0.58725 5.21186,-0.73406c1.82293,-0.14681 3.65197,-0.22022 5.48713,-0.22022c2.2756,0 4.5145,0.10399 6.71669,0.31198c2.20219,0.20798 4.26981,0.48938 6.20285,0.84417c1.93304,0.3548 3.67032,0.7463 5.21186,1.1745c1.54154,0.4282 2.77721,0.86253 3.70703,1.30296c0.19575,0.09788 0.34256,0.23857 0.44044,0.42209c0.09788,0.18352 0.14681,0.37315 0.14681,0.5689c0,0.34256 -0.11623,0.66066 -0.34868,0.95428c-0.23245,0.29363 -0.55667,0.44044 -0.97264,0.44044c-0.24469,0 -0.45267,-0.04894 -0.62395,-0.14681c-1.29685,-0.53831 -2.73439,-1.02157 -4.31263,-1.44978c-1.57824,-0.4282 -3.24824,-0.78912 -5.00999,-1.08275c-1.76176,-0.29363 -3.57857,-0.51996 -5.45043,-0.67901c-1.87186,-0.15905 -3.72538,-0.23857 -5.56054,-0.23857c-2.54476,0 -4.97941,0.14681 -7.30394,0.44044c-2.32454,0.29363 -4.3738,0.78912 -6.14779,1.48648c-1.77399,0.69736 -3.18706,1.62718 -4.23922,2.78945c-1.05216,1.16227 -1.57824,2.62428 -1.57824,4.38604c0,1.34579 0.42209,2.44077 1.26626,3.28494c0.84417,0.84417 1.98809,1.52318 3.43175,2.03703c1.44366,0.51385 3.13201,0.89923 5.06505,1.15615c1.93304,0.25692 3.9823,0.45879 6.14779,0.6056c2.16549,0.14681 4.39827,0.27527 6.69834,0.38538c2.30007,0.11011 4.53285,0.29363 6.69834,0.55055c2.16549,0.25692 4.21475,0.61172 6.14779,1.06439c1.93304,0.45267 3.62139,1.08275 5.06505,1.89022c1.44366,0.80747 2.58758,1.84128 3.43175,3.10142c0.84417,1.26014 1.26626,2.8078 1.26626,4.64296z"></path>
      <path x="0" y="0" d="M328.57143,100c0,3.57245 -0.5322,6.68611 -1.59659,9.34097c-1.06439,2.65487 -2.7038,4.86318 -4.91823,6.62493c-2.21443,1.76176 -5.01611,3.07695 -8.40504,3.9456c-3.38893,0.86864 -7.40794,1.30296 -12.05701,1.30296c-4.64908,0 -8.66808,-0.43432 -12.05701,-1.30296c-3.38893,-0.86864 -6.18449,-2.18384 -8.38669,-3.9456c-2.20219,-1.76176 -3.83549,-3.97007 -4.89988,-6.62493c-1.06439,-2.65487 -1.59659,-5.76852 -1.59659,-9.34097c0,-3.57245 0.5322,-6.68611 1.59659,-9.34097c1.06439,-2.65487 2.69769,-4.86318 4.89988,-6.62493c2.20219,-1.76176 4.99776,-3.07695 8.38669,-3.9456c3.38893,-0.86864 7.40794,-1.30296 12.05701,-1.30296c4.64908,0 8.66808,0.43432 12.05701,1.30296c3.38893,0.86864 6.19061,2.18384 8.40504,3.9456c2.21443,1.76176 3.85384,3.97007 4.91823,6.62493c1.06439,2.65487 1.59659,5.76852 1.59659,9.34097z M277.77415,100c0,3.42564 0.48938,6.32519 1.46813,8.69867c0.97875,2.37348 2.453,4.31263 4.42274,5.81746c1.96974,1.50483 4.44721,2.5937 7.4324,3.26659c2.9852,0.67289 6.48424,1.00934 10.49712,1.00934c4.01289,0 7.51193,-0.33645 10.49712,-1.00934c2.9852,-0.67289 5.46878,-1.76176 7.45076,-3.26659c1.98197,-1.50483 3.46234,-3.44399 4.44109,-5.81746c0.97875,-2.37348 1.46813,-5.27303 1.46813,-8.69867c0,-3.40117 -0.48938,-6.2946 -1.46813,-8.68031c-0.97875,-2.38571 -2.45912,-4.33098 -4.44109,-5.83581c-1.98197,-1.50483 -4.46556,-2.5937 -7.45076,-3.26659c-2.9852,-0.67289 -6.48424,-1.00934 -10.49712,-1.00934c-4.01289,0 -7.51193,0.33645 -10.49712,1.00934c-2.9852,0.67289 -5.46266,1.76176 -7.4324,3.26659c-1.96974,1.50483 -3.44399,3.4501 -4.42274,5.83581c-0.97875,2.38571 -1.46813,5.27915 -1.46813,8.68031z"></path>
    </g>
    <g></g>
  </g>
</g>
</svg>